<svg width="24" height="24" viewBox="0 0 24 24" fill="none" xmlns="http://www.w3.org/2000/svg">
<g clip-path="url(#clip0_10_350)">
<path fill-rule="evenodd" clip-rule="evenodd" d="M21 9.75H20.2153C19.8248 5.5044 16.2635 2.25574 12 2.25574C7.73647 2.25574 4.17525 5.5044 3.78469 9.75H3C2.58579 9.75 2.25 10.0858 2.25 10.5C2.25672 14.1352 4.27856 17.4669 7.5 19.1513V19.5C7.5 20.3284 8.17157 21 9 21H15C15.8284 21 16.5 20.3284 16.5 19.5V19.1513C19.7214 17.4669 21.7433 14.1352 21.75 10.5C21.75 10.0858 21.4142 9.75 21 9.75ZM18.7069 9.75H13.8862C14.7955 8.38583 16.1712 7.40017 17.7553 6.97781C18.2733 7.8203 18.5982 8.76702 18.7069 9.75ZM16.2638 5.27156C16.4356 5.41219 16.6003 5.56063 16.7578 5.71688C14.7613 6.4192 13.1114 7.86263 12.15 9.74813H9.38437C10.3448 7.05596 12.8917 5.25628 15.75 5.25C15.9216 5.25 16.0931 5.25844 16.2638 5.27156ZM12 3.75C12.6018 3.7504 13.2009 3.83143 13.7812 3.99094C10.9046 4.70454 8.62832 6.9007 7.81219 9.75H5.29313C5.67828 6.33577 8.56412 3.75409 12 3.75ZM15.4369 18C15.1697 18.1228 14.9989 18.3903 15 18.6844V19.5H9V18.6844C9.00112 18.3903 8.83032 18.1228 8.56312 18C5.87876 16.7647 4.0565 14.1921 3.78187 11.25H20.2153C19.9412 14.1915 18.1201 16.764 15.4369 18Z" fill="#141414"/>
</g>
<defs>
<clipPath id="clip0_10_350">
<rect width="24" height="24" fill="white"/>
</clipPath>
</defs>
</svg>
