<svg width="24" height="24" viewBox="0 0 24 24" fill="none" xmlns="http://www.w3.org/2000/svg">
<g clip-path="url(#clip0_10_340)">
<path fill-rule="evenodd" clip-rule="evenodd" d="M19.5 6.75H2.25V4.5C2.25 4.08579 1.91421 3.75 1.5 3.75C1.08579 3.75 0.75 4.08579 0.75 4.5V19.5C0.75 19.9142 1.08579 20.25 1.5 20.25C1.91421 20.25 2.25 19.9142 2.25 19.5V16.5H21.75V19.5C21.75 19.9142 22.0858 20.25 22.5 20.25C22.9142 20.25 23.25 19.9142 23.25 19.5V10.5C23.25 8.42893 21.5711 6.75 19.5 6.75ZM2.25 8.25H9V15H2.25V8.25ZM10.5 15V8.25H19.5C20.7426 8.25 21.75 9.25736 21.75 10.5V15H10.5Z" fill="#141414"/>
</g>
<defs>
<clipPath id="clip0_10_340">
<rect width="24" height="24" fill="white"/>
</clipPath>
</defs>
</svg>
